<svg xmlns="http://www.w3.org/2000/svg" width="32" height="32" viewBox="40.5 -4 480 480"><path fill="#fec242" d="M185.6 100.2H267l29.7-.1h69.7c23-.2 43.1 3 61 19.6l1.5 1.1c14.6 12.5 22 32.2 24.4 51.4q.7 8.6.5 17.2v44.4c0 4.1-1 6.8-3.8 9.7l-.1 3.7v5.1l-.1 2.9v7.7l-.1 8V286l-.2 17.3-.2 35.6h2.6c3-.2 4.8.5 7.2 2.2 2.3 3.7 1.7 8 1.7 12.4l.1 5v6.2c-.5 3.2-1.5 4.2-3.9 6.2-2.6 1-5 .9-7.8.9H304.3l-50.6.1H110.3c-3.3 0-5.6-.5-8.5-2.5-2.3-3.6-1.7-8-1.7-12.4v-8l-.1-2.9c.5-3.2 1.5-4.3 4-6.3 1.9-.7 3-.8 5-.8h2.7l-.2-37v-32.3l-.1-8V250c0-4.7 0-4.7-1.8-8.9l-1.4-1.3c-1.1-2.4-.9-4.8-.9-7.4v-44.9c-.2-11.7.3-23.9 4.5-34.9l.6-1.7q5-12.7 13.3-23l1.1-1.5a72 72 0 0 1 48.4-26q5.3-.3 10.4-.2"/><path fill="#d87041" d="M210 100h142.3c21.5 0 38.8 4.3 54.8 20.4a70 70 0 0 1 16.4 48.6v34.9a13 13 0 0 1-3 6.8 10 10 0 0 1-6.7 1.6h-54.1l-34.2-.1v-2.5l-.1-9.3v-4c.2-10.3.2-10.3-4.1-19.3a13 13 0 0 0-9.2-3.8h-12.3l-2.3-.1h-11.9l-12.3-.1h-20.4l-2-.1c-4.5 0-7.5 1.2-11 4.5-3.2 4.4-4 7.3-4 12.8v2l-.2 5.9v4l-.2 10-36.2.1h-16.7l-14.7.2H149c-5.8 0-5.8 0-8.6-1.7-2.4-3-2.9-5-2.9-9v-21.2c-.2-23.6 1.7-43 17.8-61l1.1-1.3c14-16.2 34.4-18.2 53.7-18.2m-68.9 143.4h94.3l.7 12.7c1.7 5.2 3.9 7.6 8.5 10.1 3 1.4 5.9 1.4 9.2 1.4H300c11.5.5 11.5.5 21.3-4.8l1-1.5 1-1.6c1.6-3.1 1.6-6.2 1.8-9.7l.3-5.9q16.8-1 33.6-.8h21.8l38.8.1v96.2H141.2z"/><path fill="#fec242" d="M185.6 100.2h7.7a16 16 0 0 1-6.6 2.1 58 58 0 0 0-32.1 18.9l-1.6 1.7c-14.4 16.1-15 36.7-14.9 57.6v23.6c.3 2.5 1 3.8 2.4 5.8 2.4 1.7 3.1 1.7 5.9 1.7h7.7l7.5.1h7.8l14.7.2H201l34.6.3-.1-2.5-.1-9.3-.1-4v-5.8l-.1-1.8c0-5.2 1.9-8.7 5.2-12.5l1.2-1 1.2-1c3-2.2 6.1-1.8 9.5-1.7h58.6V201l.1 13.2v12.7l.1 4.8v8.8c0 4.1-.5 6.5-3.1 9.7-2.2 1.5-2.6 1.7-5 1.7h-17.4l-12.5-.1h-12.6l-25-.1v-8.2h-94.2v96.2h-14.8l-.7-78.3a9 9 0 0 0-4.3-1h-1.7l-1.8-.2h-1.8l-4.4-.3v-1.4l-.2-6.6v-2.2c-.2-4.3-.3-6.9-3.3-10-1.1-2.3-.9-4.7-.9-7.3v-44.9c-.2-11.7.3-23.9 4.5-34.9l.6-1.7q5-12.7 13.3-23l1.1-1.5a72 72 0 0 1 47-25.8q5.9-.5 11.8-.4"/><path fill="#ff9f19" d="m445.8 339.7 5.4-.2 1.5-.1h1.5l1.4-.1c2.4.7 3.4 2.1 5 4.1.4 2.6.4 2.6.4 5.5v15.9c-.6 3.1-1.6 4.2-4 6.2-2.6 1-5 .9-7.8.9H304.3l-50.6.1H110.3c-3.3 0-5.6-.5-8.5-2.5-1.7-2.8-1.5-5-1.5-8.3v-1.7l.1-4.1h2.2l96.3-.1 31.2-.1h66.2l50.7-.2h89c3.1-.1 5.1-.6 7.6-2.6 1.7-2.5 1.7-5 1.9-8l.1-2.7z"/><path fill="#fdd363" d="M252.2 172.6h58.6V201l.1 13.2v12.7l.1 4.8v8.8c0 4.1-.5 6.5-3.1 9.7-2.2 1.5-2.6 1.7-5 1.7h-17.4l-12.5-.1h-12.6l-25-.1-.1-26.2-.1-12.2v-11.8l-.1-4.5v-8c0-5.3 1.9-8.8 5.2-12.6l1.2-1 1.2-1c3-2.2 6.1-1.8 9.5-1.7"/><path fill="#ff9f19" d="M419 114.5c3.8.2 5.9 2.4 8.6 5l1.4 1.3a83 83 0 0 1 24.6 55.2l.2 13.4v44.4c0 4.1-1 6.8-3.8 9.7l-.1 3.7v5.1l-.1 2.9v7.7l-.1 8V286l-.2 17.3-.2 35.6h-14.8v-7l-.2-23-.1-14-.1-13.3v-14.5l-.1-2v-1.7c-.1-1.5-.1-1.5-1.6-2.8-1.4-.3-1.4-.3-3-.4H428l-2-.1-6.2-.3v-15.7H438l-.1-33.7V195l-.1-15.1V174c0-22-3.3-41-17.9-57.7-.9-1-.9-1-.9-1.8"/><path fill="#c25a2c" d="M325.5 244.2H419V339h-14.7v-7l-.2-23-.1-14-.1-13.3v-5.2l-.1-7.1v-5.9c-.1-1.5-.1-1.5-1.7-2.8l-6-.3h-21.3l-11.5-.1h-13.1l-5.9-.1h-1.8c-2.8 0-4 .1-6 2.3l-1.2 1.9c-5.6 4.8-12.2 4-19 3.7.7-2.2.7-2.2 2.7-3.6a15 15 0 0 0 5.8-8.3z"/><path fill="#ffa221" d="m111.7 242.8 1.4.7 28.1.7v95.5h-14.8l-.7-78.3a9 9 0 0 0-4.3-1H120l-2-.2-6.2-.3z"/><path fill="#c25a2c" d="M142 244.2h93.5l.7 12 .7 3.7h-95zm247.5-136.5c11.2 3.5 20.6 14.8 26.2 25.3 4.7 9.3 7.6 19 7.7 29.7v15.9l.1 15.2v10.1q-.6 4.8-4.3 7.8c-2.3.7-4.4.6-6.7.6h-2.7l-2-.1v-2.5l-.2-23.2v-12l-.2-11.5v-4.3c0-19.4-3.9-34.4-16.7-48.8-1.2-1.4-1.2-1.4-1.2-2.2"/><path fill="#fea121" d="m174.3 106.3-1.8.9a63 63 0 0 0-26.4 26l-1.1 2a76 76 0 0 0-6.7 35.3v9.5l-.1 8.1V204c.4 3.5 2 5.9 4.4 8.2l-7.1.2-2 .1c-5.6.1-5.6.1-8.2-2-2.1-2.6-2.5-4.3-2.5-7.6v-18.5c-.1-8.2 0-15.7 2.2-23.7l.7-2.5a79 79 0 0 1 33.8-46.7l6.4-3.5 1.6-.8c2.6-1.3 4-1.9 6.8-1"/><path d="M286.2 195c3.8 1.7 6.3 5.2 8.5 8.9a24 24 0 0 1 .5 11.3c-1.5 3.5-3.2 6-6.3 8.2-.3 1.4-.3 1.4-.3 3v3.9c-.1 7.9-.1 7.9-2.5 11.7-3 2.1-5.7 2-9.1 1.5-2.4-1.9-3.3-3-4.3-6v-3.2l-.1-1.9v-3.9c-.1-3.9-.1-3.9-2.3-7l-1.8-1.1c-3-4-3.3-7.5-3.1-12.6.6-4.6 2.8-7.5 6-10.5 4.7-3.6 9.2-4 14.8-2.3"/><path fill="#c25a2c" d="m315.6 172.6 6.4-.1h1.8c5-.1 8.3.6 12 4.2 4 4.8 4.6 7.8 4.5 14.2v21.3h-14.8v-6l-.1-5.8v-4c.2-10.3.2-10.3-4.1-19.3-1.5-1.5-1.5-1.5-3-2.2l-2.7-1.5z"/><path fill="#fea121" d="M325.5 212.2h14.8v32h-14.8z"/><path fill="#fec242" d="M185.6 100.2H267l29.7-.1h69.7c23-.2 43.1 3 61 19.6l1.5 1.1c14.6 12.5 22 32.2 24.4 51.4q.7 8.6.5 17.2v44.4c0 4.1-1 6.8-3.8 9.7l-.1 3.7v5.1l-.1 2.9v7.7l-.1 8V286l-.2 17.3-.2 35.6h2.6c3-.2 4.8.5 7.2 2.2 2.3 3.7 1.7 8 1.7 12.4l.1 5v6.2c-.5 3.2-1.5 4.2-3.9 6.2-2.6 1-5 .9-7.8.9H304.3l-50.6.1H110.3c-3.3 0-5.6-.5-8.5-2.5-2.3-3.6-1.7-8-1.7-12.4v-8l-.1-2.9c.5-3.2 1.5-4.3 4-6.3 1.9-.7 3-.8 5-.8h2.7l-.2-37v-32.3l-.1-8V250c0-4.7 0-4.7-1.8-8.9l-1.4-1.3c-1.1-2.4-.9-4.8-.9-7.4v-44.9c-.2-11.7.3-23.9 4.5-34.9l.6-1.7q5-12.7 13.3-23l1.1-1.5a72 72 0 0 1 48.4-26q5.3-.3 10.4-.2"/><path fill="#d74e39" d="M210 100h142.3c21.5 0 38.8 4.3 54.8 20.4a70 70 0 0 1 16.4 48.6v34.9a13 13 0 0 1-3 6.8 10 10 0 0 1-6.7 1.6h-54.1l-34.2-.1v-2.5l-.1-9.3v-4c.2-10.3.2-10.3-4.1-19.3a13 13 0 0 0-9.2-3.8h-12.3l-2.3-.1h-11.9l-12.3-.1h-20.4l-2-.1c-4.5 0-7.5 1.2-11 4.5-3.2 4.4-4 7.3-4 12.8v2l-.2 5.9v4l-.2 10-36.2.1h-16.7l-14.7.2H149c-5.8 0-5.8 0-8.6-1.7-2.4-3-2.9-5-2.9-9v-21.2c-.2-23.6 1.7-43 17.8-61l1.1-1.3c14-16.2 34.4-18.2 53.7-18.2m-68.9 143.4h94.3l.7 12.7c1.8 5.2 3.9 7.6 8.5 10.1 3 1.4 5.9 1.4 9.2 1.4H300c11.5.5 11.5.5 21.3-4.8l1-1.5 1-1.6c1.6-3.1 1.6-6.2 1.8-9.7l.3-5.9q16.8-1 33.6-.8h21.8l38.8.1v96.2H141.2z"/><path fill="#fec242" d="M185.6 100.2h7.7a16 16 0 0 1-6.6 2.1 58 58 0 0 0-32.1 18.9l-1.6 1.7c-14.4 16.1-15 36.7-14.9 57.6v23.6c.3 2.5 1 3.8 2.4 5.8 2.4 1.7 3.1 1.7 5.9 1.7h7.7l7.5.1h7.8l14.7.2H201l34.6.3-.1-2.5-.1-9.3-.1-4v-5.8l-.1-1.8c0-5.2 1.9-8.7 5.2-12.5l1.2-1 1.2-1c3-2.2 6.1-1.8 9.5-1.7h58.6V201l.1 13.2v12.7l.1 4.8v8.8c0 4.1-.5 6.5-3.1 9.7-2.2 1.5-2.6 1.7-5 1.7h-17.4l-12.5-.1h-12.6l-25-.1v-8.2h-94.2v96.2h-14.8l-.7-78.3a9 9 0 0 0-4.3-1h-1.7l-1.8-.2h-1.8l-4.4-.3v-1.4l-.2-6.6v-2.2c-.2-4.3-.3-6.9-3.3-10-1.1-2.3-.9-4.7-.9-7.3v-44.9c-.2-11.7.3-23.9 4.5-34.9l.6-1.7q5-12.7 13.3-23l1.1-1.5a72 72 0 0 1 47-25.8q5.9-.5 11.8-.4"/><path fill="#ff9f19" d="m445.8 339.7 5.4-.2 1.5-.1h1.5l1.4-.1c2.4.7 3.4 2.1 5 4.1.4 2.6.4 2.6.4 5.5v15.9c-.6 3.1-1.6 4.2-4 6.2-2.6 1-5 .9-7.8.9H304.3l-50.6.1H110.3c-3.3 0-5.6-.5-8.5-2.5-1.8-2.8-1.5-5-1.5-8.3v-1.7l.1-4.1h2.2l96.3-.1 31.2-.1h66.2l50.7-.2h89c3.1-.1 5.1-.6 7.6-2.6 1.7-2.5 1.7-5 1.9-8l.1-2.7z"/><path fill="#fdd363" d="M252.2 172.6h58.6V201l.1 13.2v12.7l.1 4.8v8.8c0 4.1-.5 6.5-3.1 9.7-2.2 1.5-2.6 1.7-5 1.7h-17.4l-12.5-.1h-12.6l-25-.1-.1-26.2-.1-12.2v-11.8l-.1-4.5v-8c0-5.3 1.9-8.8 5.2-12.6l1.2-1 1.2-1c3-2.2 6.1-1.8 9.5-1.7"/><path fill="#ff9f19" d="M419 114.5c3.8.2 5.9 2.4 8.6 5l1.4 1.3a83 83 0 0 1 24.6 55.2l.2 13.4v44.4c0 4.1-1 6.8-3.8 9.7l-.1 3.7v5.1l-.1 2.9v7.7l-.1 8V286l-.2 17.3-.2 35.6h-14.8v-7l-.2-23-.1-14-.1-13.3v-14.5l-.1-2v-1.7c-.1-1.5-.1-1.5-1.6-2.8-1.4-.3-1.4-.3-3-.4H428l-2-.1-6.2-.3v-15.7H438l-.1-33.7V195l-.1-15.1V174c0-22-3.3-41-17.9-57.7-.9-1-.9-1-.9-1.8"/><path fill="#d76839" d="M325.5 244.2H419V339h-14.7v-7l-.2-23-.1-14-.1-13.3v-5.2l-.1-7.1v-5.9c-.1-1.5-.1-1.5-1.7-2.8l-6-.3h-21.3l-11.5-.1h-13.1l-5.9-.1h-1.8c-2.8 0-4 .1-6 2.3l-1.2 1.9c-5.6 4.8-12.2 4-19 3.7.7-2.2.7-2.2 2.7-3.6a15 15 0 0 0 5.8-8.3z"/><path fill="#ffa221" d="m111.7 242.8 1.4.7 28.1.7v95.5h-14.8l-.7-78.3a9 9 0 0 0-4.3-1H120l-2-.2-6.2-.3z"/><path fill="#d76839" d="M142 244.2h93.5l.7 12 .7 3.7h-95zm247.5-136.5c11.2 3.5 20.6 14.8 26.2 25.3 4.7 9.3 7.6 19 7.7 29.7v15.9l.1 15.2v10.1q-.6 4.8-4.3 7.8c-2.3.7-4.4.6-6.7.6h-2.7l-2-.1v-2.5l-.2-23.2v-12l-.2-11.5v-4.3c0-19.4-3.9-34.4-16.7-48.8-1.2-1.4-1.2-1.4-1.2-2.2"/><path fill="#fea121" d="m174.3 106.3-1.8.9a63 63 0 0 0-26.4 26l-1.1 2a76 76 0 0 0-6.7 35.3v9.5l-.1 8.1V204c.4 3.5 2 5.9 4.4 8.2l-7.1.2-2 .1c-5.6.1-5.6.1-8.2-2-2.1-2.6-2.5-4.3-2.5-7.6v-18.5c-.1-8.2 0-15.7 2.2-23.7l.7-2.5a79 79 0 0 1 33.8-46.7l6.4-3.5 1.6-.8c2.6-1.3 4-1.9 6.8-1"/><path d="M289 188.3a27 27 0 0 1 11.3 12c1.8 4.7 1.5 10 .8 15-2 4.8-4.4 8.2-8.5 11-.4 2-.4 2-.4 4.2v5.2c-.2 10.6-.2 10.6-3.3 15.7-4 2.8-7.6 2.8-12.3 2-3.2-2.5-4.4-4-5.7-8l-.1-4.3v-2.5l-.1-5.2c-.1-5.3-.1-5.3-3-9.4l-2.5-1.6c-4-5.4-4.4-10-4.2-16.9a23 23 0 0 1 8-14 20 20 0 0 1 20-3.2"/><path fill="#d76839" d="m315.6 172.6 6.4-.1h1.8c5-.1 8.3.6 12 4.2 4 4.8 4.6 7.8 4.5 14.2v21.3h-14.8v-6l-.1-5.8v-4c.2-10.3.2-10.3-4.1-19.3-1.5-1.5-1.5-1.5-3-2.2l-2.7-1.5z"/><path fill="#fea121" d="M325.5 212.2h14.8v32h-14.8z"/></svg>