<svg width="2030" height="473" viewBox="0 0 2030 473" fill="none" xmlns="http://www.w3.org/2000/svg">
<g filter="url(#filter0_d_2004_2)">
<path d="M185.604 100.184C186.445 100.182 187.285 100.179 188.151 100.177C190.468 100.172 192.786 100.17 195.103 100.169C197.609 100.168 200.114 100.162 202.62 100.157C208.093 100.147 213.566 100.143 219.039 100.139C222.462 100.137 225.885 100.134 229.308 100.131C238.802 100.122 248.297 100.114 257.791 100.111C258.398 100.111 259.005 100.111 259.63 100.111C260.238 100.111 260.846 100.111 261.473 100.11C262.705 100.11 263.938 100.11 265.17 100.109C265.781 100.109 266.393 100.109 267.023 100.109C276.914 100.106 286.806 100.093 296.697 100.076C306.874 100.058 317.052 100.049 327.229 100.048C332.934 100.047 338.639 100.043 344.345 100.029C349.206 100.018 354.066 100.014 358.927 100.02C361.402 100.023 363.876 100.022 366.351 100.012C389.404 99.93 409.548 103.13 427.463 119.681C427.927 120.066 428.39 120.45 428.867 120.847C443.452 133.295 450.989 153.032 453.294 172.197C453.861 177.909 453.803 183.652 453.791 189.388C453.794 190.795 453.798 192.202 453.802 193.61C453.808 196.526 453.807 199.442 453.8 202.359C453.792 206.09 453.806 209.82 453.826 213.551C453.839 216.443 453.839 219.334 453.835 222.226C453.835 223.602 453.839 224.979 453.848 226.355C453.858 228.272 453.851 230.187 453.839 232.103C453.846 232.665 453.853 233.226 453.86 233.805C453.806 237.896 452.708 240.592 449.969 243.496C449.893 244.732 449.866 245.971 449.858 247.21C449.851 248.014 449.844 248.819 449.837 249.647C449.833 250.537 449.829 251.427 449.825 252.344C449.818 253.276 449.811 254.207 449.804 255.167C449.786 257.728 449.77 260.289 449.756 262.85C449.741 265.524 449.722 268.197 449.703 270.871C449.668 275.938 449.636 281.004 449.606 286.071C449.571 291.837 449.532 297.604 449.493 303.371C449.413 315.236 449.338 327.102 449.266 338.967C450.146 338.947 451.025 338.927 451.931 338.906C454.811 338.84 456.656 339.53 459.113 341.205C461.43 344.891 460.808 349.286 460.819 353.604C460.827 355.273 460.861 356.939 460.897 358.607C460.904 359.673 460.909 360.738 460.912 361.804C460.922 362.77 460.931 363.736 460.941 364.731C460.413 367.961 459.394 369.031 457.003 371.04C454.374 371.969 451.935 371.89 449.197 371.884C448.607 371.885 448.017 371.887 447.408 371.888C445.414 371.892 443.419 371.891 441.424 371.89C439.986 371.892 438.548 371.894 437.111 371.897C433.146 371.903 429.182 371.904 425.217 371.905C420.947 371.906 416.677 371.912 412.406 371.917C402.575 371.928 392.745 371.932 382.914 371.935C378.057 371.937 373.201 371.94 368.344 371.943C351.725 371.952 335.106 371.96 318.487 371.963C317.444 371.963 316.4 371.963 315.357 371.963C314.311 371.963 313.264 371.964 312.218 371.964C310.12 371.964 308.021 371.964 305.923 371.965C305.403 371.965 304.882 371.965 304.346 371.965C287.47 371.968 270.594 371.979 253.718 371.997C235.882 372.015 218.046 372.025 200.21 372.026C198.253 372.026 196.296 372.027 194.339 372.027C193.616 372.027 193.616 372.027 192.878 372.027C185.116 372.028 177.354 372.036 169.591 372.047C161.793 372.058 153.994 372.06 146.195 372.054C141.968 372.051 137.741 372.052 133.515 372.062C129.648 372.072 125.781 372.071 121.915 372.062C120.513 372.06 119.112 372.063 117.71 372.069C115.81 372.077 113.91 372.072 112.009 372.063C111.461 372.069 110.914 372.074 110.349 372.08C106.99 372.046 104.664 371.476 101.828 369.548C99.5109 365.862 100.133 361.467 100.122 357.149C100.114 355.48 100.079 353.814 100.044 352.145C100.037 351.08 100.032 350.014 100.029 348.949C100.019 347.983 100.01 347.017 100 346.021C100.528 342.791 101.547 341.722 103.938 339.713C105.873 339.029 107.004 338.886 108.993 338.921C109.878 338.936 110.763 338.951 111.675 338.967C111.648 326.584 111.606 314.2 111.545 301.817C111.517 296.067 111.494 290.317 111.484 284.567C111.475 279.555 111.456 274.543 111.425 269.532C111.409 266.878 111.398 264.225 111.399 261.571C111.4 258.608 111.378 255.646 111.355 252.683C111.361 251.364 111.361 251.364 111.366 250.019C111.357 245.335 111.357 245.335 109.585 241.15C108.878 240.465 108.878 240.465 108.158 239.766C107.065 237.447 107.345 234.988 107.341 232.442C107.338 231.839 107.334 231.236 107.331 230.614C107.32 228.608 107.316 226.602 107.312 224.596C107.308 223.193 107.304 221.791 107.3 220.389C107.292 217.438 107.288 214.486 107.286 211.535C107.282 207.792 107.265 204.05 107.245 200.307C107.232 197.402 107.228 194.497 107.227 191.592C107.225 190.216 107.219 188.839 107.21 187.462C107.136 175.751 107.641 163.642 111.806 152.639C112.018 152.059 112.229 151.479 112.447 150.881C115.67 142.319 120.069 134.884 125.741 127.886C126.104 127.393 126.468 126.899 126.843 126.391C138.325 111.285 157.351 102.505 175.214 100.45C178.674 100.151 182.134 100.181 185.604 100.184Z" fill="#FEC242"/>
<path d="M210.054 100.084C211.748 100.08 213.441 100.077 215.135 100.072C219.239 100.063 223.344 100.061 227.448 100.063C230.789 100.064 234.129 100.063 237.47 100.06C237.947 100.059 238.425 100.059 238.917 100.058C239.887 100.058 240.857 100.057 241.828 100.056C250.906 100.048 259.984 100.049 269.062 100.054C277.342 100.058 285.622 100.049 293.902 100.035C302.431 100.021 310.96 100.015 319.489 100.017C324.267 100.019 329.044 100.017 333.822 100.006C338.317 99.9969 342.813 99.9984 347.309 100.008C348.951 100.01 350.593 100.008 352.234 100.002C373.761 99.9264 391.134 104.273 407.067 120.427C419.112 133.845 423.461 150.84 423.48 168.97C423.484 170.034 423.489 171.099 423.494 172.163C423.502 174.378 423.505 176.593 423.504 178.807C423.504 181.637 423.523 184.466 423.547 187.296C423.563 189.488 423.566 191.679 423.565 193.871C423.567 194.914 423.573 195.958 423.584 197.001C423.598 198.459 423.592 199.916 423.585 201.374C423.587 202.2 423.589 203.027 423.591 203.879C423.154 206.8 422.185 208.397 420.43 210.677C418.19 212.203 416.415 212.354 413.781 212.348C413.002 212.351 412.223 212.353 411.42 212.355C410.569 212.349 409.717 212.344 408.84 212.338C407.491 212.339 407.491 212.339 406.116 212.339C403.653 212.34 401.19 212.331 398.727 212.32C396.152 212.311 393.578 212.31 391.003 212.308C386.128 212.304 381.254 212.291 376.379 212.277C370.829 212.26 365.279 212.252 359.729 212.244C348.314 212.229 336.898 212.202 325.483 212.169C325.48 211.346 325.477 210.522 325.474 209.674C325.458 206.592 325.42 203.51 325.375 200.428C325.359 199.1 325.349 197.771 325.345 196.442C325.598 186.068 325.598 186.068 321.263 177.113C318.534 174.55 315.738 173.297 312.096 173.274C311.52 173.269 310.944 173.263 310.351 173.258C309.722 173.256 309.093 173.254 308.444 173.252C307.78 173.247 307.115 173.242 306.43 173.237C304.228 173.222 302.025 173.214 299.823 173.206C299.07 173.203 298.318 173.2 297.543 173.197C293.561 173.181 289.578 173.171 285.596 173.164C281.485 173.155 277.374 173.13 273.263 173.1C270.1 173.081 266.937 173.074 263.774 173.072C262.259 173.068 260.744 173.059 259.229 173.046C257.106 173.027 254.983 173.028 252.86 173.033C252.237 173.024 251.613 173.014 250.971 173.004C246.362 173.045 243.358 174.161 239.884 177.533C236.689 181.939 235.945 184.759 235.87 190.317C235.857 190.942 235.843 191.567 235.829 192.211C235.787 194.202 235.754 196.193 235.722 198.184C235.695 199.536 235.668 200.888 235.639 202.24C235.572 205.549 235.513 208.859 235.458 212.169C223.414 212.239 211.371 212.291 199.327 212.324C193.735 212.339 188.142 212.36 182.55 212.394C177.676 212.424 172.802 212.443 167.928 212.45C165.347 212.454 162.766 212.463 160.185 212.485C157.304 212.509 154.423 212.509 151.542 212.508C150.259 212.524 150.259 212.524 148.95 212.54C143.194 212.51 143.194 212.51 140.393 210.843C138.011 207.78 137.521 205.814 137.504 201.831C137.497 200.949 137.491 200.067 137.484 199.158C137.484 198.204 137.485 197.25 137.486 196.267C137.483 195.267 137.48 194.266 137.477 193.266C137.471 191.163 137.472 189.06 137.475 186.957C137.478 184.826 137.474 182.696 137.461 180.565C137.319 156.957 139.191 137.543 155.28 119.681C155.66 119.223 156.04 118.764 156.431 118.291C170.329 102.142 190.791 100.059 210.054 100.084Z" fill="#D87041"/>
<path d="M141.214 243.496C172.314 243.496 203.415 243.496 235.458 243.496C235.69 247.68 235.922 251.864 236.161 256.175C237.95 261.392 240.077 263.819 244.668 266.305C247.727 267.66 250.587 267.684 253.866 267.665C254.807 267.673 254.807 267.673 255.767 267.68C257.83 267.694 259.893 267.691 261.956 267.687C263.399 267.69 264.841 267.694 266.284 267.699C269.304 267.705 272.325 267.704 275.345 267.696C279.202 267.688 283.059 267.703 286.916 267.724C289.895 267.738 292.874 267.738 295.853 267.734C297.274 267.734 298.695 267.738 300.116 267.747C311.554 268.168 311.554 268.168 321.441 262.862C321.897 262.114 321.897 262.114 322.362 261.35C322.682 260.849 323.002 260.348 323.331 259.832C324.973 256.704 325 253.553 325.175 250.069C325.277 248.126 325.38 246.184 325.483 244.241C336.689 243.541 347.856 243.396 359.08 243.423C360.643 243.424 362.206 243.425 363.769 243.425C369.484 243.429 375.198 243.439 380.913 243.449C400.126 243.472 400.126 243.472 419.727 243.496C419.727 275.247 419.727 306.999 419.727 339.713C327.818 339.713 235.908 339.713 141.214 339.713C141.214 307.961 141.214 276.21 141.214 243.496Z" fill="#D87041"/>
<path d="M185.567 100.242C186.31 100.245 187.053 100.249 187.818 100.252C189.632 100.261 191.446 100.273 193.259 100.288C191.008 101.549 189.246 102.027 186.71 102.34C174.083 104.444 163.46 111.752 154.577 121.173C154.046 121.735 153.516 122.298 152.97 122.877C138.617 139.037 138.029 159.647 138.126 180.524C138.138 183.184 138.13 185.843 138.118 188.503C138.11 190.572 138.113 192.64 138.118 194.709C138.12 196.164 138.114 197.619 138.107 199.073C138.114 199.956 138.121 200.838 138.128 201.747C138.13 202.906 138.13 202.906 138.133 204.088C138.445 206.556 139.122 207.938 140.511 209.931C142.868 211.598 143.644 211.614 146.399 211.631C147.183 211.639 147.967 211.648 148.775 211.656C150.065 211.659 150.065 211.659 151.382 211.661C152.288 211.669 153.194 211.676 154.127 211.684C156.612 211.704 159.096 211.715 161.581 211.725C164.177 211.737 166.774 211.757 169.37 211.776C174.287 211.811 179.204 211.838 184.121 211.863C189.718 211.891 195.316 211.928 200.913 211.966C212.428 212.043 223.943 212.109 235.458 212.169C235.44 211.342 235.421 210.514 235.402 209.662C235.338 206.571 235.298 203.479 235.265 200.387C235.247 199.053 235.223 197.719 235.193 196.386C235.15 194.46 235.13 192.535 235.115 190.609C235.097 190.02 235.078 189.43 235.06 188.823C235.057 183.581 236.999 180.113 240.321 176.324C240.718 175.984 241.115 175.645 241.524 175.295C241.925 174.942 242.326 174.589 242.739 174.226C245.632 172.124 248.835 172.538 252.187 172.553C253.134 172.553 253.134 172.553 254.101 172.553C256.19 172.553 258.279 172.559 260.368 172.565C261.816 172.566 263.264 172.568 264.711 172.568C268.523 172.571 272.335 172.578 276.148 172.587C280.037 172.594 283.926 172.598 287.815 172.602C295.448 172.61 303.08 172.622 310.713 172.638C310.778 182.091 310.828 191.544 310.859 200.997C310.873 205.387 310.893 209.776 310.925 214.166C310.956 218.402 310.973 222.639 310.98 226.875C310.985 228.491 310.995 230.107 311.01 231.723C311.031 233.987 311.034 236.251 311.032 238.515C311.042 239.183 311.053 239.85 311.063 240.538C311.038 244.621 310.499 246.99 307.9 250.208C305.734 251.74 305.306 251.886 302.866 251.88C301.974 251.883 301.974 251.883 301.064 251.886C300.414 251.88 299.764 251.875 299.094 251.87C298.408 251.87 297.721 251.87 297.014 251.87C294.742 251.869 292.471 251.858 290.199 251.846C288.625 251.843 287.051 251.841 285.477 251.839C281.332 251.834 277.187 251.819 273.042 251.803C268.813 251.787 264.585 251.781 260.356 251.773C252.057 251.757 243.757 251.732 235.458 251.7C235.458 248.993 235.458 246.285 235.458 243.496C204.358 243.496 173.257 243.496 141.214 243.496C141.214 275.247 141.214 306.999 141.214 339.713C136.34 339.713 131.466 339.713 126.444 339.713C126.212 313.869 125.98 288.024 125.741 261.397C124.168 260.562 123.175 260.506 121.428 260.415C120.861 260.383 120.294 260.352 119.711 260.32C119.119 260.291 118.526 260.261 117.917 260.231C117.02 260.183 117.02 260.183 116.106 260.133C114.629 260.054 113.152 259.979 111.675 259.905C111.668 259.427 111.661 258.95 111.655 258.458C111.617 256.282 111.558 254.108 111.499 251.933C111.489 251.182 111.479 250.431 111.469 249.656C111.337 245.415 111.201 242.838 108.158 239.766C107.065 237.447 107.345 234.988 107.341 232.442C107.336 231.537 107.336 231.537 107.331 230.614C107.32 228.608 107.316 226.602 107.312 224.596C107.308 223.193 107.304 221.791 107.3 220.389C107.292 217.438 107.288 214.486 107.286 211.535C107.282 207.792 107.265 204.05 107.245 200.307C107.232 197.402 107.228 194.497 107.227 191.592C107.225 190.216 107.219 188.839 107.21 187.462C107.136 175.751 107.641 163.642 111.806 152.639C112.018 152.059 112.229 151.479 112.447 150.881C115.67 142.319 120.069 134.884 125.741 127.886C126.104 127.393 126.468 126.899 126.843 126.391C138.001 111.71 156.435 102.933 173.783 100.571C177.706 100.16 181.629 100.208 185.567 100.242Z" fill="#FEC242"/>
<path d="M445.75 339.713C447.553 339.612 449.352 339.538 451.156 339.48C451.664 339.449 452.171 339.417 452.693 339.385C453.438 339.367 453.438 339.367 454.198 339.349C454.651 339.329 455.104 339.31 455.57 339.29C457.967 339.998 459.009 341.397 460.519 343.442C460.974 345.997 460.974 345.997 460.986 348.896C460.99 349.412 460.993 349.928 460.996 350.459C460.999 351.545 460.992 352.631 460.978 353.716C460.959 355.372 460.978 357.024 461 358.68C460.998 359.739 460.993 360.797 460.986 361.856C460.98 363.291 460.98 363.291 460.974 364.755C460.406 367.948 459.371 369.041 457.003 371.04C454.374 371.969 451.935 371.89 449.197 371.884C448.607 371.885 448.017 371.887 447.408 371.888C445.414 371.892 443.419 371.891 441.424 371.89C439.986 371.892 438.548 371.894 437.111 371.897C433.146 371.903 429.182 371.904 425.217 371.905C420.947 371.906 416.677 371.912 412.406 371.917C402.575 371.928 392.745 371.932 382.914 371.935C378.057 371.937 373.201 371.94 368.344 371.943C351.725 371.952 335.106 371.96 318.487 371.963C317.444 371.963 316.4 371.963 315.357 371.963C314.311 371.963 313.264 371.964 312.218 371.964C310.12 371.964 308.021 371.964 305.923 371.965C305.403 371.965 304.882 371.965 304.346 371.965C287.47 371.968 270.594 371.979 253.718 371.997C235.882 372.015 218.046 372.025 200.21 372.026C198.253 372.026 196.296 372.027 194.339 372.027C193.616 372.027 193.616 372.027 192.878 372.027C185.116 372.028 177.354 372.036 169.591 372.047C161.793 372.058 153.994 372.06 146.195 372.054C141.968 372.051 137.741 372.052 133.515 372.062C129.648 372.072 125.781 372.071 121.915 372.062C120.513 372.06 119.112 372.063 117.71 372.069C115.81 372.077 113.91 372.072 112.009 372.063C111.461 372.069 110.914 372.074 110.349 372.08C106.99 372.046 104.664 371.476 101.828 369.548C100.05 366.72 100.264 364.469 100.334 361.203C100.34 360.644 100.346 360.085 100.353 359.509C100.369 358.131 100.395 356.754 100.422 355.376C101.139 355.375 101.856 355.375 102.596 355.374C134.207 355.342 165.819 355.307 197.431 355.258C197.909 355.257 198.388 355.256 198.881 355.255C209.277 355.239 219.673 355.223 230.07 355.205C235.168 355.197 240.266 355.189 245.365 355.18C246.126 355.179 246.126 355.179 246.902 355.178C263.353 355.151 279.805 355.132 296.257 355.116C313.159 355.1 330.062 355.077 346.965 355.044C349.351 355.04 351.737 355.035 354.123 355.031C354.827 355.029 354.827 355.029 355.546 355.028C362.644 355.015 369.742 355.008 376.84 355.005C384.912 355.001 392.984 354.99 401.056 354.969C405.177 354.959 409.298 354.952 413.419 354.955C417.189 354.957 420.958 354.95 424.728 354.934C426.095 354.93 427.462 354.93 428.829 354.934C430.681 354.938 432.533 354.93 434.385 354.917C434.921 354.922 435.457 354.927 436.009 354.932C439.144 354.893 441.137 354.427 443.64 352.393C445.319 349.923 445.317 347.354 445.486 344.375C445.538 343.502 445.591 342.629 445.645 341.729C445.68 341.064 445.714 340.398 445.75 339.713Z" fill="#FF9F19"/>
<path d="M252.187 172.553C253.134 172.553 253.134 172.553 254.101 172.553C256.19 172.553 258.279 172.559 260.368 172.565C261.816 172.566 263.264 172.568 264.711 172.568C268.523 172.571 272.335 172.578 276.148 172.587C280.037 172.594 283.926 172.598 287.815 172.602C295.448 172.61 303.08 172.622 310.713 172.638C310.778 182.091 310.828 191.544 310.859 200.997C310.873 205.387 310.893 209.776 310.925 214.166C310.956 218.402 310.973 222.639 310.98 226.875C310.985 228.491 310.995 230.107 311.01 231.723C311.031 233.987 311.034 236.251 311.032 238.515C311.042 239.183 311.053 239.85 311.063 240.538C311.038 244.621 310.499 246.99 307.9 250.208C305.734 251.74 305.306 251.886 302.866 251.88C301.974 251.883 301.974 251.883 301.064 251.886C300.414 251.88 299.764 251.875 299.094 251.87C298.408 251.87 297.721 251.87 297.014 251.87C294.742 251.869 292.471 251.858 290.199 251.846C288.625 251.843 287.051 251.841 285.477 251.839C281.332 251.834 277.187 251.819 273.042 251.803C268.813 251.787 264.585 251.781 260.356 251.773C252.057 251.757 243.757 251.732 235.458 251.7C235.377 242.954 235.314 234.207 235.276 225.46C235.258 221.398 235.233 217.337 235.193 213.275C235.155 209.353 235.134 205.431 235.125 201.509C235.118 200.015 235.105 198.521 235.086 197.027C235.061 194.929 235.057 192.832 235.059 190.734C235.046 190.121 235.034 189.508 235.021 188.876C235.065 183.617 236.984 180.13 240.321 176.324C240.718 175.984 241.115 175.645 241.524 175.295C242.125 174.766 242.125 174.766 242.739 174.226C245.632 172.124 248.835 172.538 252.187 172.553Z" fill="#FDD363"/>
<path d="M419.024 114.46C422.762 114.739 424.862 116.925 427.551 119.448C428.016 119.882 428.48 120.316 428.958 120.763C443.895 135.096 452.221 154.804 453.608 175.989C453.799 180.454 453.8 184.919 453.791 189.388C453.794 190.795 453.798 192.202 453.802 193.61C453.808 196.526 453.807 199.442 453.8 202.359C453.792 206.09 453.806 209.82 453.826 213.551C453.839 216.443 453.839 219.334 453.835 222.226C453.835 223.602 453.839 224.979 453.848 226.355C453.858 228.272 453.851 230.187 453.839 232.103C453.846 232.665 453.853 233.226 453.86 233.805C453.806 237.896 452.708 240.592 449.969 243.496C449.893 244.732 449.866 245.971 449.858 247.21C449.851 248.014 449.844 248.819 449.837 249.647C449.833 250.537 449.829 251.427 449.825 252.344C449.818 253.276 449.811 254.207 449.804 255.167C449.786 257.728 449.77 260.289 449.756 262.85C449.741 265.524 449.722 268.197 449.703 270.871C449.668 275.938 449.636 281.004 449.606 286.071C449.571 291.837 449.532 297.604 449.493 303.371C449.413 315.236 449.338 327.102 449.266 338.967C444.392 338.967 439.518 338.967 434.497 338.967C434.483 336.648 434.469 334.328 434.454 331.938C434.407 324.29 434.353 316.642 434.294 308.994C434.259 304.356 434.227 299.717 434.2 295.078C434.174 290.604 434.141 286.131 434.104 281.658C434.091 279.948 434.08 278.238 434.072 276.528C434.06 274.14 434.04 271.752 434.017 269.364C434.016 268.651 434.014 267.938 434.013 267.203C434.005 266.555 433.997 265.906 433.989 265.238C433.985 264.673 433.981 264.108 433.977 263.526C433.902 261.959 433.902 261.959 432.387 260.651C431.027 260.376 431.027 260.376 429.48 260.342C428.969 260.315 428.459 260.289 427.933 260.261C426.961 260.223 426.961 260.223 425.969 260.184C422.879 260.046 422.879 260.046 419.727 259.905C419.727 254.736 419.727 249.567 419.727 244.242C425.761 244.242 431.796 244.242 438.013 244.242C437.985 233.011 437.945 221.78 437.884 210.549C437.856 205.333 437.833 200.117 437.823 194.901C437.812 189.857 437.787 184.813 437.754 179.769C437.744 177.855 437.738 175.941 437.737 174.027C437.724 151.934 434.532 132.996 419.903 116.269C419.024 115.206 419.024 115.206 419.024 114.46Z" fill="#FF9F19"/>
<path d="M325.483 244.241C356.351 244.241 387.22 244.242 419.024 244.242C419.024 275.501 419.024 306.76 419.024 338.967C414.15 338.967 409.276 338.967 404.254 338.967C404.233 335.488 404.233 335.488 404.212 331.938C404.165 324.29 404.11 316.642 404.052 308.994C404.017 304.356 403.984 299.717 403.957 295.078C403.931 290.605 403.899 286.131 403.861 281.658C403.848 279.948 403.838 278.238 403.83 276.528C403.818 274.14 403.797 271.752 403.775 269.364C403.773 268.651 403.772 267.938 403.77 267.203C403.762 266.555 403.755 265.906 403.746 265.238C403.743 264.673 403.739 264.108 403.735 263.526C403.66 261.959 403.66 261.959 402.144 260.651C400.125 260.491 398.174 260.424 396.154 260.422C395.534 260.416 394.914 260.41 394.275 260.403C392.219 260.385 390.162 260.379 388.105 260.374C386.679 260.367 385.253 260.36 383.827 260.353C380.834 260.341 377.841 260.335 374.848 260.333C371.01 260.329 367.173 260.301 363.335 260.267C360.388 260.245 357.441 260.24 354.494 260.239C353.079 260.236 351.664 260.226 350.25 260.211C348.271 260.191 346.293 260.194 344.314 260.204C343.728 260.193 343.142 260.181 342.538 260.17C339.722 260.208 338.463 260.308 336.437 262.47C335.889 263.415 335.889 263.415 335.329 264.38C329.678 269.168 323.149 268.486 316.339 268.109C317.043 265.872 317.043 265.872 319.021 264.52C322.06 262.308 323.619 259.865 324.779 256.175C325.011 252.237 325.243 248.299 325.483 244.241Z" fill="#C25A2C"/>
<path d="M111.675 242.75C112.371 243.119 112.371 243.119 113.081 243.496C127.007 243.865 127.007 243.865 141.214 244.242C141.214 275.747 141.214 307.253 141.214 339.713C136.34 339.713 131.466 339.713 126.444 339.713C126.212 313.869 125.98 288.024 125.741 261.397C124.168 260.562 123.175 260.506 121.428 260.415C120.917 260.386 120.407 260.358 119.881 260.329C118.908 260.28 118.908 260.28 117.917 260.231C114.827 260.07 114.827 260.07 111.675 259.905C111.675 254.244 111.675 248.582 111.675 242.75Z" fill="#FFA221"/>
<path d="M141.917 244.242C172.786 244.242 203.654 244.242 235.458 244.242C235.69 248.18 235.922 252.118 236.161 256.175C236.394 257.406 236.626 258.637 236.865 259.905C205.532 259.905 174.199 259.905 141.917 259.905C141.917 254.736 141.917 249.567 141.917 244.242Z" fill="#C25A2C"/>
<path d="M389.484 107.747C400.691 111.193 410.114 122.493 415.65 132.984C420.356 142.334 423.279 151.997 423.368 162.693C423.382 164.126 423.382 164.126 423.395 165.589C423.401 166.619 423.406 167.649 423.411 168.678C423.414 169.203 423.417 169.727 423.42 170.268C423.434 173.039 423.444 175.811 423.451 178.582C423.459 181.435 423.483 184.288 423.511 187.141C423.529 189.346 423.535 191.55 423.538 193.755C423.541 194.806 423.549 195.858 423.562 196.91C423.58 198.382 423.577 199.854 423.574 201.326C423.578 202.162 423.582 202.998 423.587 203.859C423.092 207.238 421.746 209.616 419.166 211.697C416.923 212.38 414.845 212.308 412.518 212.262C411.629 212.249 410.741 212.235 409.826 212.222C409.147 212.204 408.469 212.187 407.771 212.169C407.766 211.353 407.762 210.537 407.758 209.696C407.718 201.961 407.666 194.226 407.605 186.491C407.573 182.516 407.546 178.541 407.527 174.565C407.508 170.72 407.48 166.876 407.445 163.031C407.433 161.572 407.425 160.114 407.421 158.656C407.356 139.326 403.542 124.34 390.671 109.883C389.484 108.493 389.484 108.493 389.484 107.747Z" fill="#C25A2C"/>
<path d="M174.27 106.255C173.402 106.717 173.402 106.717 172.517 107.188C161.468 113.25 152.288 121.487 146.137 133.107C145.761 133.796 145.385 134.486 144.997 135.196C139.345 146.241 138.296 158.162 138.258 170.526C138.256 171.026 138.254 171.526 138.252 172.041C138.241 174.681 138.235 177.321 138.232 179.961C138.228 182.68 138.211 185.398 138.191 188.117C138.178 190.217 138.174 192.318 138.173 194.419C138.17 195.907 138.157 197.394 138.144 198.882C138.146 199.788 138.148 200.695 138.15 201.628C138.147 202.424 138.145 203.219 138.142 204.038C138.559 207.525 140.204 209.851 142.62 212.169C140.247 212.278 137.874 212.344 135.499 212.402C134.496 212.449 134.496 212.449 133.472 212.497C127.874 212.6 127.874 212.6 125.307 210.43C123.173 207.896 122.841 206.172 122.814 202.896C122.808 202.228 122.801 201.56 122.794 200.872C122.791 200.149 122.788 199.427 122.785 198.682C122.781 197.932 122.777 197.182 122.773 196.409C122.766 194.816 122.761 193.223 122.759 191.629C122.752 189.225 122.73 186.821 122.708 184.416C122.668 176.191 122.888 168.658 125.038 160.704C125.241 159.878 125.445 159.053 125.655 158.202C130.53 138.903 143.338 121.62 159.5 111.477C161.61 110.243 163.748 109.091 165.918 107.98C166.426 107.718 166.935 107.456 167.458 107.185C170.059 105.923 171.544 105.308 174.27 106.255Z" fill="#FEA121"/>
<path d="M286.229 195.014C290.029 196.723 292.516 200.231 294.652 203.865C295.979 207.456 295.725 211.391 295.24 215.153C293.747 218.708 291.962 221.2 288.91 223.357C288.588 224.794 288.588 224.794 288.624 226.446C288.609 227.06 288.594 227.674 288.578 228.307C288.571 228.95 288.565 229.594 288.559 230.256C288.479 238.167 288.479 238.167 286.097 242.004C283.122 244.107 280.448 244.087 276.954 243.496C274.6 241.611 273.662 240.483 272.734 237.529C272.671 236.459 272.641 235.387 272.635 234.315C272.621 233.696 272.608 233.078 272.594 232.44C272.57 231.143 272.557 229.845 272.555 228.548C272.502 224.622 272.502 224.622 270.341 221.557C269.738 221.166 269.135 220.776 268.514 220.374C265.531 216.356 265.226 212.885 265.385 207.813C265.999 203.234 268.166 200.337 271.371 197.345C276.061 193.747 280.638 193.223 286.229 195.014Z" fill="black"/>
<path d="M315.636 172.638C317.761 172.577 319.885 172.533 322.01 172.498C322.606 172.479 323.202 172.461 323.816 172.441C328.726 172.381 332.076 173.14 335.856 176.694C339.851 181.518 340.36 184.496 340.321 190.9C340.32 191.508 340.319 192.117 340.318 192.743C340.314 194.681 340.305 196.619 340.296 198.557C340.293 199.873 340.289 201.189 340.287 202.505C340.279 205.726 340.266 208.948 340.252 212.169C335.378 212.169 330.504 212.169 325.483 212.169C325.473 210.201 325.463 208.233 325.452 206.205C325.431 204.279 325.403 202.354 325.375 200.428C325.359 199.1 325.349 197.771 325.345 196.442C325.6 186.063 325.6 186.063 321.263 177.113C319.791 175.646 319.791 175.646 318.23 174.876C317.362 174.385 316.496 173.89 315.636 173.384C315.636 173.138 315.636 172.891 315.636 172.638Z" fill="#C25A2C"/>
<path d="M325.483 212.169C330.357 212.169 335.231 212.169 340.252 212.169C340.252 222.753 340.252 233.337 340.252 244.242C335.378 244.242 330.504 244.241 325.483 244.241C325.483 233.658 325.483 223.074 325.483 212.169Z" fill="#FEA121"/>
</g>
<path d="M185.604 100.184C186.445 100.182 187.285 100.179 188.151 100.177C190.468 100.172 192.786 100.17 195.103 100.169C197.609 100.168 200.114 100.162 202.62 100.157C208.093 100.147 213.566 100.143 219.039 100.139C222.462 100.137 225.885 100.134 229.308 100.131C238.802 100.122 248.297 100.114 257.791 100.111C258.398 100.111 259.005 100.111 259.63 100.111C260.238 100.111 260.846 100.111 261.473 100.11C262.705 100.11 263.938 100.11 265.17 100.109C265.781 100.109 266.393 100.109 267.023 100.109C276.914 100.106 286.806 100.093 296.697 100.076C306.874 100.058 317.052 100.049 327.229 100.048C332.934 100.047 338.639 100.043 344.345 100.029C349.206 100.018 354.066 100.014 358.927 100.02C361.402 100.023 363.876 100.022 366.351 100.012C389.404 99.93 409.548 103.13 427.463 119.681C427.927 120.066 428.39 120.45 428.867 120.847C443.452 133.295 450.989 153.032 453.294 172.197C453.861 177.909 453.803 183.652 453.791 189.388C453.794 190.795 453.798 192.202 453.802 193.61C453.808 196.526 453.807 199.442 453.8 202.359C453.792 206.09 453.806 209.82 453.826 213.551C453.839 216.443 453.839 219.334 453.835 222.226C453.835 223.602 453.839 224.979 453.848 226.355C453.858 228.272 453.851 230.187 453.839 232.103C453.846 232.665 453.853 233.226 453.86 233.805C453.806 237.896 452.708 240.592 449.969 243.496C449.893 244.732 449.866 245.971 449.858 247.21C449.851 248.014 449.844 248.819 449.837 249.647C449.833 250.537 449.829 251.427 449.825 252.344C449.818 253.276 449.811 254.207 449.804 255.167C449.786 257.728 449.77 260.289 449.756 262.85C449.741 265.524 449.722 268.197 449.703 270.871C449.668 275.938 449.636 281.004 449.606 286.071C449.571 291.837 449.532 297.604 449.493 303.371C449.413 315.236 449.338 327.102 449.266 338.967C450.146 338.947 451.025 338.927 451.931 338.906C454.811 338.84 456.656 339.53 459.113 341.205C461.43 344.891 460.808 349.286 460.819 353.604C460.827 355.273 460.861 356.939 460.897 358.607C460.904 359.673 460.909 360.738 460.912 361.804C460.922 362.77 460.931 363.736 460.941 364.731C460.413 367.961 459.394 369.031 457.003 371.04C454.374 371.969 451.934 371.89 449.197 371.884C448.607 371.885 448.017 371.887 447.408 371.888C445.414 371.892 443.419 371.891 441.424 371.89C439.986 371.892 438.548 371.894 437.111 371.897C433.146 371.903 429.182 371.904 425.217 371.905C420.947 371.906 416.677 371.912 412.406 371.917C402.575 371.928 392.745 371.932 382.914 371.935C378.057 371.937 373.201 371.94 368.344 371.943C351.725 371.952 335.106 371.96 318.487 371.963C317.443 371.963 316.4 371.963 315.357 371.963C314.311 371.963 313.264 371.964 312.218 371.964C310.12 371.964 308.021 371.964 305.923 371.965C305.403 371.965 304.882 371.965 304.346 371.965C287.47 371.968 270.594 371.98 253.718 371.997C235.882 372.015 218.046 372.025 200.21 372.026C198.253 372.026 196.296 372.027 194.339 372.027C193.616 372.027 193.616 372.027 192.878 372.027C185.116 372.028 177.354 372.036 169.591 372.047C161.793 372.058 153.994 372.06 146.195 372.054C141.968 372.051 137.741 372.052 133.515 372.062C129.648 372.072 125.781 372.071 121.915 372.062C120.513 372.06 119.112 372.063 117.71 372.069C115.81 372.077 113.91 372.072 112.009 372.063C111.461 372.069 110.914 372.074 110.349 372.08C106.99 372.046 104.664 371.476 101.828 369.548C99.5109 365.862 100.133 361.467 100.122 357.149C100.114 355.48 100.079 353.814 100.044 352.145C100.037 351.08 100.032 350.014 100.029 348.949C100.019 347.983 100.01 347.017 100 346.021C100.528 342.791 101.547 341.722 103.938 339.713C105.873 339.029 107.004 338.886 108.993 338.921C109.878 338.936 110.763 338.951 111.675 338.967C111.648 326.584 111.606 314.2 111.545 301.817C111.517 296.067 111.494 290.317 111.484 284.567C111.475 279.555 111.456 274.543 111.425 269.532C111.409 266.878 111.398 264.225 111.399 261.571C111.4 258.608 111.378 255.646 111.355 252.683C111.361 251.364 111.361 251.364 111.366 250.019C111.357 245.335 111.357 245.335 109.585 241.15C108.878 240.465 108.878 240.465 108.158 239.766C107.065 237.447 107.345 234.988 107.341 232.442C107.338 231.839 107.334 231.236 107.331 230.614C107.32 228.608 107.316 226.602 107.312 224.596C107.308 223.193 107.304 221.791 107.3 220.389C107.292 217.438 107.288 214.486 107.286 211.535C107.282 207.792 107.265 204.05 107.245 200.307C107.232 197.402 107.228 194.497 107.227 191.592C107.225 190.216 107.219 188.839 107.21 187.462C107.136 175.751 107.641 163.642 111.806 152.639C112.018 152.059 112.229 151.479 112.447 150.881C115.67 142.319 120.069 134.884 125.741 127.886C126.104 127.393 126.468 126.899 126.843 126.391C138.325 111.285 157.351 102.505 175.214 100.45C178.674 100.151 182.134 100.181 185.604 100.184Z" fill="#FEC242"/>
<path d="M210.054 100.084C211.748 100.08 213.441 100.077 215.135 100.072C219.239 100.063 223.344 100.061 227.448 100.063C230.789 100.064 234.129 100.063 237.47 100.06C237.947 100.059 238.425 100.059 238.917 100.058C239.887 100.058 240.857 100.057 241.828 100.056C250.906 100.048 259.984 100.049 269.062 100.054C277.342 100.058 285.622 100.049 293.902 100.035C302.431 100.021 310.96 100.015 319.489 100.017C324.267 100.019 329.044 100.017 333.822 100.006C338.317 99.9969 342.813 99.9984 347.309 100.008C348.951 100.01 350.593 100.008 352.234 100.002C373.761 99.9264 391.134 104.273 407.067 120.427C419.112 133.845 423.461 150.84 423.48 168.97C423.484 170.034 423.489 171.099 423.494 172.163C423.502 174.378 423.505 176.593 423.504 178.807C423.504 181.637 423.523 184.466 423.547 187.296C423.563 189.488 423.566 191.679 423.565 193.871C423.567 194.914 423.573 195.958 423.584 197.001C423.598 198.459 423.592 199.916 423.585 201.374C423.587 202.2 423.589 203.027 423.591 203.879C423.154 206.8 422.185 208.397 420.43 210.677C418.19 212.203 416.415 212.354 413.781 212.348C413.002 212.351 412.223 212.353 411.42 212.355C410.569 212.349 409.717 212.344 408.84 212.338C407.491 212.339 407.491 212.339 406.116 212.339C403.653 212.34 401.19 212.331 398.727 212.32C396.152 212.311 393.578 212.31 391.003 212.308C386.128 212.304 381.254 212.291 376.379 212.277C370.829 212.26 365.279 212.252 359.729 212.244C348.314 212.229 336.898 212.202 325.483 212.169C325.48 211.346 325.477 210.522 325.474 209.674C325.458 206.592 325.42 203.51 325.375 200.428C325.359 199.1 325.349 197.771 325.345 196.442C325.598 186.068 325.598 186.068 321.263 177.113C318.534 174.55 315.738 173.297 312.096 173.274C311.52 173.269 310.944 173.263 310.351 173.258C309.722 173.256 309.093 173.254 308.444 173.252C307.78 173.247 307.115 173.242 306.43 173.237C304.228 173.222 302.025 173.214 299.823 173.206C299.07 173.203 298.318 173.2 297.543 173.197C293.561 173.181 289.578 173.171 285.596 173.164C281.485 173.155 277.374 173.13 273.263 173.1C270.1 173.081 266.937 173.074 263.774 173.072C262.259 173.068 260.744 173.059 259.229 173.046C257.106 173.027 254.983 173.028 252.86 173.033C252.237 173.024 251.613 173.014 250.971 173.004C246.362 173.045 243.358 174.161 239.884 177.533C236.689 181.939 235.945 184.759 235.87 190.317C235.857 190.942 235.843 191.567 235.829 192.211C235.787 194.202 235.754 196.193 235.722 198.184C235.695 199.536 235.668 200.888 235.64 202.24C235.572 205.549 235.513 208.859 235.458 212.169C223.414 212.239 211.371 212.291 199.327 212.324C193.735 212.339 188.142 212.36 182.55 212.394C177.676 212.424 172.802 212.443 167.928 212.45C165.347 212.454 162.766 212.463 160.185 212.485C157.304 212.509 154.423 212.509 151.542 212.508C150.259 212.524 150.259 212.524 148.95 212.54C143.194 212.51 143.194 212.51 140.393 210.843C138.011 207.78 137.521 205.814 137.504 201.831C137.497 200.949 137.491 200.067 137.484 199.158C137.484 198.204 137.485 197.25 137.486 196.267C137.483 195.267 137.48 194.266 137.477 193.266C137.471 191.163 137.472 189.06 137.475 186.957C137.478 184.826 137.474 182.696 137.461 180.565C137.319 156.957 139.191 137.543 155.28 119.681C155.66 119.223 156.04 118.764 156.431 118.291C170.329 102.142 190.791 100.059 210.054 100.084Z" fill="#D74E39"/>
<path d="M141.214 243.496C172.314 243.496 203.415 243.496 235.458 243.496C235.69 247.68 235.922 251.864 236.161 256.175C237.95 261.392 240.077 263.819 244.668 266.304C247.727 267.66 250.587 267.684 253.866 267.665C254.807 267.673 254.807 267.673 255.767 267.68C257.83 267.694 259.893 267.691 261.956 267.687C263.399 267.69 264.841 267.694 266.284 267.699C269.304 267.705 272.325 267.704 275.345 267.696C279.202 267.688 283.059 267.703 286.916 267.724C289.895 267.738 292.874 267.738 295.853 267.734C297.274 267.734 298.695 267.738 300.116 267.747C311.554 268.168 311.554 268.168 321.441 262.862C321.897 262.114 321.897 262.114 322.362 261.35C322.682 260.849 323.002 260.348 323.331 259.832C324.973 256.704 325 253.553 325.175 250.069C325.277 248.126 325.38 246.184 325.483 244.241C336.689 243.541 347.856 243.396 359.08 243.423C360.643 243.424 362.206 243.425 363.769 243.425C369.484 243.429 375.198 243.439 380.913 243.449C400.126 243.472 400.126 243.472 419.727 243.496C419.727 275.247 419.727 306.999 419.727 339.713C327.818 339.713 235.908 339.713 141.214 339.713C141.214 307.961 141.214 276.209 141.214 243.496Z" fill="#D74E39"/>
<path d="M185.567 100.242C186.31 100.245 187.053 100.249 187.818 100.252C189.632 100.261 191.446 100.273 193.259 100.288C191.008 101.549 189.246 102.027 186.71 102.34C174.083 104.444 163.46 111.752 154.577 121.173C154.046 121.735 153.516 122.298 152.97 122.877C138.617 139.037 138.029 159.647 138.126 180.524C138.138 183.184 138.13 185.843 138.118 188.503C138.11 190.572 138.113 192.64 138.118 194.709C138.12 196.164 138.114 197.619 138.107 199.073C138.114 199.956 138.121 200.838 138.128 201.747C138.13 202.906 138.13 202.906 138.133 204.088C138.445 206.556 139.122 207.938 140.511 209.931C142.868 211.598 143.644 211.614 146.399 211.631C147.183 211.639 147.967 211.648 148.775 211.656C150.065 211.659 150.065 211.659 151.382 211.661C152.288 211.669 153.194 211.676 154.127 211.684C156.612 211.704 159.096 211.715 161.581 211.725C164.177 211.737 166.774 211.757 169.37 211.776C174.287 211.811 179.204 211.838 184.121 211.863C189.718 211.891 195.316 211.928 200.913 211.966C212.428 212.043 223.943 212.109 235.458 212.169C235.44 211.342 235.421 210.514 235.402 209.662C235.338 206.571 235.298 203.479 235.265 200.387C235.247 199.053 235.223 197.719 235.193 196.386C235.15 194.46 235.13 192.535 235.115 190.609C235.097 190.02 235.078 189.43 235.06 188.823C235.057 183.581 236.999 180.113 240.321 176.324C240.718 175.984 241.115 175.645 241.524 175.295C241.925 174.942 242.326 174.589 242.739 174.226C245.632 172.124 248.835 172.538 252.187 172.553C253.134 172.553 253.134 172.553 254.101 172.553C256.19 172.553 258.279 172.559 260.368 172.565C261.816 172.566 263.264 172.568 264.711 172.568C268.523 172.571 272.335 172.578 276.148 172.587C280.037 172.594 283.926 172.598 287.815 172.602C295.448 172.61 303.08 172.622 310.713 172.638C310.778 182.091 310.828 191.544 310.859 200.997C310.873 205.387 310.893 209.776 310.925 214.166C310.956 218.402 310.973 222.639 310.98 226.875C310.985 228.491 310.995 230.107 311.01 231.723C311.031 233.987 311.034 236.251 311.032 238.515C311.042 239.183 311.053 239.85 311.063 240.538C311.038 244.621 310.499 246.99 307.9 250.208C305.734 251.74 305.306 251.886 302.866 251.88C301.974 251.883 301.974 251.883 301.064 251.886C300.414 251.88 299.764 251.875 299.094 251.87C298.408 251.87 297.721 251.87 297.014 251.87C294.742 251.869 292.471 251.858 290.199 251.846C288.625 251.843 287.051 251.841 285.477 251.839C281.332 251.834 277.187 251.819 273.042 251.803C268.813 251.787 264.585 251.781 260.356 251.773C252.057 251.757 243.757 251.732 235.458 251.7C235.458 248.993 235.458 246.285 235.458 243.496C204.358 243.496 173.257 243.496 141.214 243.496C141.214 275.247 141.214 306.999 141.214 339.713C136.34 339.713 131.466 339.713 126.444 339.713C126.212 313.869 125.98 288.024 125.741 261.397C124.168 260.562 123.175 260.506 121.428 260.415C120.861 260.383 120.294 260.352 119.711 260.32C119.119 260.291 118.526 260.261 117.917 260.231C117.02 260.183 117.02 260.183 116.106 260.133C114.629 260.054 113.152 259.979 111.675 259.905C111.668 259.427 111.661 258.95 111.655 258.458C111.617 256.282 111.558 254.108 111.499 251.933C111.489 251.182 111.479 250.431 111.469 249.656C111.337 245.415 111.201 242.837 108.158 239.766C107.065 237.447 107.345 234.988 107.341 232.442C107.336 231.537 107.336 231.537 107.331 230.614C107.32 228.608 107.316 226.602 107.312 224.595C107.308 223.193 107.304 221.791 107.3 220.389C107.292 217.438 107.288 214.486 107.286 211.535C107.282 207.792 107.265 204.049 107.245 200.307C107.232 197.402 107.228 194.497 107.227 191.592C107.225 190.215 107.219 188.839 107.21 187.462C107.136 175.751 107.641 163.641 111.806 152.639C112.018 152.059 112.229 151.479 112.447 150.881C115.67 142.318 120.069 134.884 125.741 127.886C126.104 127.392 126.468 126.899 126.843 126.391C138.001 111.71 156.435 102.933 173.783 100.571C177.706 100.16 181.629 100.208 185.567 100.242Z" fill="#FEC242"/>
<path d="M445.75 339.713C447.553 339.612 449.351 339.538 451.156 339.48C451.664 339.449 452.171 339.417 452.693 339.385C453.438 339.367 453.438 339.367 454.198 339.349C454.651 339.329 455.104 339.31 455.57 339.29C457.967 339.998 459.009 341.397 460.519 343.442C460.974 345.997 460.974 345.997 460.986 348.896C460.99 349.412 460.993 349.928 460.996 350.459C460.999 351.545 460.992 352.631 460.978 353.716C460.959 355.372 460.978 357.024 461 358.68C460.998 359.739 460.993 360.797 460.986 361.856C460.98 363.291 460.98 363.291 460.974 364.755C460.406 367.948 459.371 369.041 457.003 371.039C454.374 371.969 451.934 371.89 449.197 371.883C448.607 371.885 448.017 371.886 447.409 371.888C445.414 371.892 443.419 371.891 441.424 371.89C439.986 371.892 438.548 371.894 437.111 371.897C433.146 371.903 429.182 371.904 425.217 371.905C420.947 371.906 416.677 371.912 412.406 371.917C402.575 371.927 392.745 371.932 382.914 371.935C378.057 371.937 373.201 371.94 368.344 371.942C351.725 371.952 335.106 371.96 318.487 371.963C317.443 371.963 316.4 371.963 315.357 371.963C314.311 371.963 313.264 371.963 312.218 371.964C310.12 371.964 308.021 371.964 305.923 371.965C305.402 371.965 304.882 371.965 304.346 371.965C287.47 371.968 270.594 371.979 253.718 371.997C235.882 372.015 218.046 372.025 200.21 372.026C198.253 372.026 196.296 372.027 194.339 372.027C193.616 372.027 193.616 372.027 192.878 372.027C185.116 372.028 177.354 372.036 169.591 372.047C161.793 372.057 153.994 372.06 146.195 372.054C141.968 372.051 137.741 372.052 133.515 372.062C129.648 372.072 125.781 372.071 121.915 372.062C120.513 372.06 119.112 372.063 117.71 372.069C115.81 372.077 113.91 372.072 112.009 372.063C111.462 372.068 110.914 372.074 110.349 372.08C106.99 372.045 104.664 371.476 101.828 369.548C100.05 366.72 100.264 364.469 100.334 361.203C100.34 360.644 100.346 360.085 100.353 359.509C100.369 358.131 100.395 356.754 100.422 355.376C101.139 355.375 101.856 355.375 102.596 355.374C134.207 355.342 165.819 355.307 197.431 355.258C197.909 355.257 198.388 355.256 198.881 355.255C209.277 355.239 219.673 355.223 230.07 355.205C235.168 355.197 240.266 355.189 245.365 355.18C246.126 355.179 246.126 355.179 246.902 355.178C263.353 355.151 279.805 355.132 296.257 355.116C313.159 355.1 330.062 355.077 346.965 355.044C349.351 355.04 351.737 355.035 354.123 355.031C354.827 355.029 354.827 355.029 355.546 355.028C362.644 355.015 369.742 355.008 376.84 355.005C384.912 355.001 392.984 354.99 401.056 354.969C405.177 354.959 409.298 354.952 413.419 354.955C417.189 354.957 420.958 354.95 424.728 354.934C426.095 354.93 427.462 354.93 428.829 354.934C430.681 354.938 432.533 354.93 434.385 354.917C434.921 354.922 435.457 354.927 436.009 354.932C439.144 354.893 441.137 354.427 443.64 352.393C445.319 349.923 445.317 347.354 445.486 344.375C445.538 343.502 445.591 342.629 445.645 341.729C445.68 341.064 445.714 340.398 445.75 339.713Z" fill="#FF9F19"/>
<path d="M252.187 172.553C253.134 172.553 253.134 172.553 254.101 172.553C256.19 172.553 258.279 172.559 260.368 172.565C261.816 172.567 263.264 172.568 264.711 172.568C268.523 172.571 272.335 172.579 276.148 172.587C280.037 172.594 283.926 172.598 287.815 172.602C295.448 172.61 303.08 172.622 310.713 172.638C310.778 182.091 310.828 191.544 310.859 200.997C310.873 205.387 310.893 209.776 310.925 214.166C310.956 218.402 310.973 222.639 310.98 226.875C310.985 228.491 310.995 230.107 311.01 231.723C311.031 233.987 311.034 236.251 311.032 238.515C311.042 239.183 311.053 239.85 311.063 240.538C311.038 244.621 310.499 246.99 307.9 250.209C305.734 251.74 305.306 251.886 302.866 251.88C301.974 251.883 301.974 251.883 301.064 251.886C300.414 251.88 299.764 251.875 299.094 251.87C298.408 251.87 297.721 251.87 297.014 251.87C294.742 251.869 292.471 251.858 290.199 251.846C288.625 251.843 287.051 251.841 285.477 251.84C281.332 251.834 277.187 251.819 273.042 251.803C268.813 251.787 264.584 251.781 260.356 251.773C252.057 251.757 243.757 251.732 235.458 251.7C235.377 242.954 235.314 234.207 235.276 225.46C235.258 221.398 235.233 217.337 235.193 213.275C235.155 209.353 235.134 205.431 235.125 201.509C235.118 200.015 235.105 198.521 235.086 197.027C235.061 194.929 235.057 192.832 235.059 190.734C235.046 190.121 235.034 189.508 235.021 188.876C235.065 183.617 236.984 180.13 240.321 176.324C240.718 175.984 241.115 175.645 241.524 175.295C242.125 174.766 242.125 174.766 242.739 174.226C245.632 172.124 248.835 172.538 252.187 172.553Z" fill="#FDD363"/>
<path d="M419.024 114.46C422.762 114.739 424.862 116.925 427.551 119.448C428.016 119.882 428.48 120.316 428.958 120.763C443.895 135.096 452.221 154.804 453.608 175.989C453.799 180.454 453.8 184.919 453.791 189.388C453.794 190.795 453.798 192.202 453.802 193.609C453.808 196.526 453.807 199.442 453.8 202.359C453.792 206.09 453.806 209.82 453.826 213.551C453.839 216.442 453.839 219.334 453.835 222.226C453.835 223.602 453.839 224.979 453.848 226.355C453.858 228.271 453.851 230.187 453.839 232.103C453.846 232.665 453.853 233.226 453.86 233.804C453.806 237.896 452.708 240.592 449.969 243.496C449.893 244.732 449.866 245.971 449.858 247.21C449.851 248.014 449.844 248.818 449.837 249.647C449.833 250.537 449.829 251.427 449.825 252.344C449.818 253.276 449.811 254.207 449.804 255.166C449.786 257.728 449.77 260.289 449.756 262.85C449.741 265.524 449.722 268.197 449.703 270.871C449.668 275.938 449.636 281.004 449.606 286.071C449.571 291.837 449.532 297.604 449.493 303.371C449.413 315.236 449.338 327.102 449.266 338.967C444.392 338.967 439.518 338.967 434.497 338.967C434.483 336.648 434.469 334.328 434.454 331.938C434.407 324.29 434.353 316.642 434.294 308.994C434.259 304.356 434.227 299.717 434.2 295.078C434.174 290.604 434.141 286.131 434.104 281.658C434.091 279.948 434.08 278.238 434.072 276.528C434.06 274.14 434.04 271.752 434.017 269.364C434.016 268.651 434.014 267.938 434.013 267.203C434.005 266.555 433.997 265.906 433.989 265.238C433.985 264.673 433.981 264.108 433.977 263.526C433.902 261.959 433.902 261.959 432.387 260.651C431.027 260.376 431.027 260.376 429.48 260.342C428.969 260.315 428.459 260.289 427.933 260.261C426.961 260.223 426.961 260.223 425.969 260.184C422.879 260.046 422.879 260.046 419.727 259.905C419.727 254.736 419.727 249.567 419.727 244.242C425.761 244.242 431.796 244.242 438.013 244.242C437.985 233.011 437.944 221.78 437.884 210.549C437.856 205.333 437.833 200.117 437.823 194.901C437.812 189.857 437.787 184.813 437.754 179.769C437.744 177.855 437.738 175.941 437.737 174.027C437.724 151.934 434.532 132.996 419.903 116.269C419.024 115.206 419.024 115.206 419.024 114.46Z" fill="#FF9F19"/>
<path d="M325.483 244.242C356.351 244.242 387.22 244.242 419.024 244.242C419.024 275.501 419.024 306.76 419.024 338.967C414.15 338.967 409.276 338.967 404.254 338.967C404.233 335.488 404.233 335.488 404.212 331.938C404.165 324.29 404.11 316.642 404.052 308.994C404.017 304.356 403.984 299.717 403.957 295.078C403.931 290.605 403.899 286.131 403.861 281.658C403.848 279.948 403.838 278.238 403.83 276.528C403.818 274.14 403.797 271.752 403.775 269.364C403.773 268.651 403.772 267.938 403.77 267.203C403.762 266.555 403.755 265.906 403.746 265.238C403.743 264.673 403.739 264.108 403.735 263.526C403.66 261.959 403.66 261.959 402.144 260.651C400.125 260.491 398.174 260.424 396.154 260.422C395.534 260.416 394.914 260.41 394.275 260.403C392.219 260.385 390.162 260.379 388.105 260.374C386.679 260.367 385.253 260.36 383.827 260.353C380.834 260.341 377.841 260.335 374.848 260.333C371.01 260.329 367.173 260.301 363.335 260.267C360.388 260.245 357.441 260.24 354.494 260.239C353.079 260.236 351.665 260.226 350.25 260.211C348.271 260.191 346.293 260.194 344.314 260.204C343.728 260.193 343.142 260.181 342.538 260.17C339.722 260.208 338.463 260.308 336.437 262.47C335.889 263.415 335.889 263.415 335.329 264.38C329.677 269.168 323.149 268.486 316.339 268.109C317.043 265.872 317.043 265.872 319.021 264.52C322.06 262.308 323.619 259.865 324.779 256.175C325.011 252.237 325.243 248.299 325.483 244.242Z" fill="#D76839"/>
<path d="M111.675 242.75C112.371 243.119 112.371 243.119 113.081 243.496C127.007 243.865 127.007 243.865 141.214 244.241C141.214 275.747 141.214 307.253 141.214 339.713C136.34 339.713 131.466 339.713 126.444 339.713C126.212 313.869 125.98 288.024 125.741 261.397C124.168 260.562 123.175 260.506 121.428 260.415C120.917 260.386 120.407 260.358 119.881 260.329C118.908 260.28 118.908 260.28 117.917 260.231C114.827 260.07 114.827 260.07 111.675 259.905C111.675 254.244 111.675 248.582 111.675 242.75Z" fill="#FFA221"/>
<path d="M141.917 244.242C172.786 244.242 203.654 244.242 235.458 244.242C235.69 248.18 235.922 252.118 236.161 256.175C236.394 257.406 236.626 258.637 236.865 259.905C205.532 259.905 174.199 259.905 141.917 259.905C141.917 254.736 141.917 249.567 141.917 244.242Z" fill="#D76839"/>
<path d="M389.484 107.747C400.691 111.193 410.114 122.493 415.65 132.984C420.356 142.334 423.279 151.997 423.368 162.693C423.382 164.126 423.382 164.126 423.395 165.589C423.401 166.619 423.406 167.649 423.411 168.678C423.414 169.203 423.417 169.727 423.42 170.268C423.434 173.039 423.444 175.811 423.451 178.582C423.459 181.435 423.483 184.288 423.511 187.141C423.529 189.346 423.535 191.55 423.538 193.755C423.541 194.806 423.549 195.858 423.562 196.91C423.58 198.382 423.577 199.854 423.574 201.326C423.578 202.162 423.582 202.998 423.587 203.859C423.092 207.238 421.746 209.616 419.166 211.697C416.923 212.38 414.845 212.308 412.518 212.262C411.629 212.249 410.741 212.235 409.826 212.222C409.147 212.204 408.469 212.187 407.771 212.169C407.766 211.353 407.762 210.537 407.758 209.696C407.718 201.961 407.666 194.226 407.605 186.491C407.573 182.516 407.546 178.541 407.527 174.565C407.508 170.72 407.48 166.876 407.445 163.031C407.433 161.572 407.425 160.114 407.421 158.656C407.356 139.326 403.542 124.34 390.671 109.883C389.484 108.493 389.484 108.493 389.484 107.747Z" fill="#D76839"/>
<path d="M174.27 106.255C173.402 106.717 173.402 106.717 172.517 107.188C161.468 113.25 152.288 121.487 146.137 133.107C145.761 133.796 145.385 134.486 144.997 135.196C139.345 146.241 138.296 158.162 138.258 170.526C138.256 171.026 138.254 171.526 138.252 172.041C138.241 174.681 138.235 177.321 138.232 179.961C138.228 182.68 138.211 185.398 138.191 188.117C138.178 190.217 138.174 192.318 138.173 194.419C138.17 195.907 138.157 197.394 138.144 198.882C138.146 199.788 138.148 200.695 138.15 201.628C138.147 202.424 138.145 203.219 138.142 204.038C138.559 207.525 140.204 209.851 142.62 212.169C140.247 212.278 137.874 212.344 135.499 212.402C134.496 212.449 134.496 212.449 133.472 212.497C127.874 212.6 127.874 212.6 125.307 210.43C123.173 207.896 122.841 206.172 122.814 202.896C122.808 202.228 122.801 201.56 122.794 200.872C122.791 200.149 122.788 199.427 122.785 198.682C122.781 197.932 122.777 197.182 122.773 196.409C122.766 194.816 122.761 193.223 122.759 191.629C122.752 189.225 122.73 186.821 122.708 184.416C122.668 176.191 122.888 168.658 125.038 160.704C125.241 159.878 125.445 159.053 125.655 158.202C130.53 138.903 143.338 121.62 159.5 111.477C161.61 110.243 163.748 109.091 165.918 107.98C166.426 107.718 166.935 107.456 167.458 107.185C170.059 105.923 171.544 105.308 174.27 106.255Z" fill="#FEA121"/>
<path d="M289.027 188.341C294.128 190.635 297.466 195.345 300.334 200.224C302.116 205.044 301.774 210.326 301.123 215.376C299.12 220.149 296.722 223.494 292.626 226.39C292.194 228.319 292.194 228.319 292.243 230.536C292.222 231.36 292.201 232.185 292.18 233.035C292.171 233.898 292.163 234.762 292.154 235.652C292.047 246.271 292.047 246.271 288.85 251.422C284.856 254.245 281.266 254.217 276.576 253.424C273.416 250.894 272.157 249.38 270.911 245.414C270.826 243.978 270.787 242.539 270.778 241.1C270.76 240.269 270.741 239.439 270.723 238.583C270.691 236.841 270.674 235.099 270.671 233.358C270.599 228.088 270.599 228.088 267.698 223.973C266.889 223.449 266.08 222.925 265.246 222.385C261.242 216.991 260.831 212.332 261.045 205.523C261.869 199.377 264.779 195.487 269.081 191.47C275.377 186.641 281.521 185.936 289.027 188.341Z" fill="black"/>
<path d="M315.636 172.638C317.761 172.577 319.885 172.533 322.01 172.498C322.606 172.479 323.202 172.461 323.816 172.441C328.726 172.381 332.076 173.14 335.856 176.694C339.851 181.518 340.36 184.496 340.321 190.9C340.32 191.508 340.319 192.117 340.318 192.743C340.314 194.681 340.305 196.619 340.296 198.557C340.293 199.873 340.289 201.189 340.287 202.505C340.279 205.726 340.266 208.948 340.252 212.169C335.378 212.169 330.504 212.169 325.483 212.169C325.473 210.201 325.463 208.233 325.452 206.205C325.431 204.279 325.403 202.354 325.375 200.428C325.359 199.1 325.349 197.771 325.345 196.442C325.6 186.063 325.6 186.063 321.263 177.113C319.791 175.646 319.791 175.646 318.23 174.876C317.362 174.385 316.496 173.89 315.636 173.384C315.636 173.138 315.636 172.891 315.636 172.638Z" fill="#D76839"/>
<path d="M325.483 212.169C330.357 212.169 335.231 212.169 340.252 212.169C340.252 222.753 340.252 233.337 340.252 244.242C335.378 244.242 330.504 244.242 325.483 244.242C325.483 233.658 325.483 223.074 325.483 212.169Z" fill="#FEA121"/>
<path d="M708.955 357.331C690.74 357.331 674.858 353.888 661.308 347.002C647.757 340.116 636.984 330.675 628.987 318.68C621.213 306.463 616.659 292.357 615.326 276.364L645.314 274.364C646.869 286.137 650.312 296.133 655.643 304.352C660.974 312.571 668.083 318.791 676.968 323.012C686.075 327.232 696.96 329.342 709.622 329.342C720.728 329.342 730.169 327.899 737.944 325.011C745.718 322.123 751.605 317.903 755.603 312.349C759.824 306.796 761.934 300.021 761.934 292.024C761.934 284.694 760.157 278.252 756.603 272.698C753.271 266.923 746.718 261.703 736.944 257.038C727.392 252.151 713.176 247.375 694.294 242.71C676.079 238.046 661.53 232.937 650.645 227.383C639.983 221.83 632.208 215.055 627.321 207.058C622.656 199.061 620.324 189.176 620.324 177.403C620.324 164.075 623.434 152.413 629.654 142.417C636.095 132.199 645.203 124.313 656.976 118.76C668.749 112.985 682.743 110.097 698.959 110.097C716.286 110.097 731.169 113.429 743.608 120.093C756.047 126.535 765.932 135.42 773.263 146.749C780.593 158.078 785.147 170.961 786.924 185.4L756.936 187.399C755.603 177.847 752.493 169.406 747.606 162.076C742.942 154.523 736.5 148.637 728.281 144.416C720.062 140.196 710.066 138.086 698.293 138.086C683.632 138.086 671.97 141.64 663.307 148.748C654.644 155.634 650.312 164.742 650.312 176.07C650.312 183.401 651.978 189.509 655.31 194.396C658.864 199.061 665.084 203.282 673.969 207.058C682.855 210.612 695.627 214.499 712.287 218.72C732.057 223.607 747.717 229.493 759.268 236.38C771.041 243.044 779.371 250.818 784.258 259.704C789.367 268.589 791.922 278.696 791.922 290.025C791.922 303.797 788.368 315.792 781.26 326.01C774.151 336.006 764.377 343.781 751.938 349.334C739.499 354.666 725.171 357.331 708.955 357.331Z" fill="white"/>
<path d="M864.364 355.998C846.149 355.998 831.6 351.778 820.715 343.337C810.053 334.896 804.722 323.123 804.722 308.018C804.722 292.913 809.164 281.028 818.05 272.365C826.935 263.702 841.04 257.593 860.366 254.039L923.008 242.377C923.008 227.494 919.453 216.388 912.345 209.057C905.459 201.727 895.019 198.062 881.024 198.062C868.807 198.062 859.144 200.838 852.036 206.392C844.928 211.723 840.041 219.497 837.375 229.716L807.72 227.383C811.052 210.723 819.049 197.284 831.711 187.066C844.594 176.626 861.032 171.406 881.024 171.406C903.682 171.406 921.008 177.847 933.004 190.731C944.999 203.393 950.996 220.941 950.996 243.377V316.348C950.996 320.346 951.663 323.234 952.996 325.011C954.55 326.566 956.994 327.343 960.326 327.343H967.323V352C966.435 352.222 964.991 352.333 962.992 352.333C960.992 352.555 958.882 352.666 956.661 352.666C948.664 352.666 942.111 351.445 937.002 349.001C932.115 346.336 928.561 342.337 926.34 337.006C924.118 331.453 923.008 324.233 923.008 315.348L926.34 316.014C924.785 323.567 921.008 330.453 915.011 336.673C909.013 342.67 901.572 347.446 892.686 351C883.801 354.332 874.36 355.998 864.364 355.998ZM867.03 331.342C878.803 331.342 888.799 329.12 897.018 324.678C905.459 320.013 911.901 313.793 916.344 306.018C920.786 298.022 923.008 289.136 923.008 279.362V266.701L865.697 277.363C853.702 279.585 845.372 283.028 840.707 287.692C836.264 292.135 834.043 298.022 834.043 305.352C834.043 313.571 836.931 320.013 842.706 324.678C848.704 329.12 856.812 331.342 867.03 331.342Z" fill="white"/>
<path d="M975.611 352V175.404H1001.27L1002.27 220.386L998.935 217.387C1001.16 206.947 1005.04 198.395 1010.6 191.731C1016.15 184.845 1022.81 179.736 1030.59 176.404C1038.59 173.072 1047.14 171.406 1056.25 171.406C1069.8 171.406 1080.9 174.404 1089.57 180.402C1098.45 186.4 1105 194.507 1109.22 204.726C1113.67 214.722 1115.89 225.939 1115.89 238.379V352H1087.9V246.376C1087.9 235.491 1086.57 226.384 1083.9 219.053C1081.46 211.501 1077.46 205.836 1071.91 202.06C1066.35 198.062 1059.13 196.062 1050.25 196.062C1036.7 196.062 1025.48 200.394 1016.6 209.057C1007.93 217.498 1003.6 229.938 1003.6 246.376V352H975.611Z" fill="white"/>
<path d="M1204.63 355.998C1189.3 355.998 1175.98 352.222 1164.65 344.67C1153.54 337.117 1144.99 326.455 1138.99 312.682C1132.99 298.91 1129.99 282.583 1129.99 263.702C1129.99 244.821 1132.99 228.494 1138.99 214.722C1144.99 200.949 1153.54 190.287 1164.65 182.734C1175.98 175.182 1189.3 171.406 1204.63 171.406C1216.4 171.406 1227.18 173.96 1236.95 179.069C1246.73 183.956 1254.06 190.953 1258.94 200.061V115.428H1286.93V352H1261.61L1260.61 325.344C1255.72 334.896 1248.28 342.448 1238.29 348.002C1228.29 353.333 1217.07 355.998 1204.63 355.998ZM1210.3 329.342C1220.74 329.342 1229.51 326.677 1236.62 321.346C1243.95 316.014 1249.5 308.462 1253.28 298.688C1257.06 288.692 1258.94 277.03 1258.94 263.702C1258.94 249.93 1257.06 238.157 1253.28 228.383C1249.5 218.609 1243.95 211.167 1236.62 206.058C1229.51 200.727 1220.74 198.062 1210.3 198.062C1194.75 198.062 1182.31 203.948 1172.98 215.721C1163.87 227.272 1159.32 243.266 1159.32 263.702C1159.32 283.916 1163.87 299.91 1172.98 311.683C1182.31 323.456 1194.75 329.342 1210.3 329.342Z" fill="white"/>
<path d="M1382.55 355.998C1366.11 355.998 1351.78 352.222 1339.56 344.67C1327.57 337.117 1318.24 326.455 1311.58 312.682C1304.91 298.688 1301.58 282.361 1301.58 263.702C1301.58 245.043 1304.91 228.827 1311.58 215.055C1318.24 201.283 1327.57 190.62 1339.56 183.068C1351.78 175.293 1366.11 171.406 1382.55 171.406C1396.1 171.406 1408.09 173.849 1418.53 178.736C1429.2 183.401 1437.86 190.287 1444.52 199.394C1451.19 208.502 1455.52 219.609 1457.52 232.714L1428.2 234.714C1426.2 222.941 1421.09 213.944 1412.87 207.724C1404.65 201.283 1394.54 198.062 1382.55 198.062C1366.33 198.062 1353.67 203.948 1344.56 215.721C1335.46 227.272 1330.9 243.266 1330.9 263.702C1330.9 284.138 1335.46 300.243 1344.56 312.016C1353.67 323.567 1366.33 329.342 1382.55 329.342C1394.54 329.342 1404.65 326.01 1412.87 319.346C1421.09 312.682 1426.2 302.686 1428.2 289.358L1457.52 291.358C1455.52 304.463 1451.19 315.903 1444.52 325.677C1437.86 335.229 1429.2 342.67 1418.53 348.002C1408.09 353.333 1396.1 355.998 1382.55 355.998Z" fill="white"/>
<path d="M1468.89 352V115.428H1496.88V214.388L1493.55 213.722C1495.77 203.948 1499.55 195.951 1504.88 189.732C1510.21 183.512 1516.76 178.958 1524.54 176.07C1532.31 172.961 1540.86 171.406 1550.19 171.406C1562.85 171.406 1573.52 174.293 1582.18 180.069C1591.06 185.622 1597.73 193.508 1602.17 203.726C1606.84 213.722 1609.17 225.273 1609.17 238.379V352H1581.18V246.376C1581.18 229.271 1578.07 216.61 1571.85 208.391C1565.85 200.172 1556.63 196.062 1544.19 196.062C1529.98 196.062 1518.54 200.394 1509.87 209.057C1501.21 217.72 1496.88 230.271 1496.88 246.709V352H1468.89Z" fill="white"/>
<path d="M1704.24 355.998C1687.58 355.998 1673.14 352.222 1660.93 344.67C1648.93 337.117 1639.6 326.455 1632.94 312.682C1626.5 298.688 1623.27 282.361 1623.27 263.702C1623.27 245.043 1626.5 228.827 1632.94 215.055C1639.6 201.283 1648.82 190.62 1660.59 183.068C1672.59 175.293 1686.69 171.406 1702.91 171.406C1718.24 171.406 1731.79 175.071 1743.56 182.401C1755.33 189.509 1764.44 199.95 1770.88 213.722C1777.55 227.494 1780.88 244.265 1780.88 264.035V272.365H1652.6C1653.71 291.247 1658.7 305.463 1667.59 315.015C1676.7 324.567 1688.91 329.342 1704.24 329.342C1715.79 329.342 1725.23 326.677 1732.56 321.346C1740.12 315.792 1745.34 308.573 1748.22 299.688L1778.21 302.02C1773.55 317.791 1764.66 330.786 1751.56 341.004C1738.67 351 1722.9 355.998 1704.24 355.998ZM1652.6 247.708H1750.22C1748.89 230.604 1743.89 218.054 1735.23 210.057C1726.79 202.06 1716.01 198.062 1702.91 198.062C1689.36 198.062 1678.14 202.282 1669.26 210.723C1660.59 218.942 1655.04 231.271 1652.6 247.708Z" fill="white"/>
<path d="M1859.77 355.998C1844 355.998 1830.56 353.444 1819.46 348.335C1808.57 343.226 1800.02 336.229 1793.8 327.343C1787.8 318.236 1784.36 307.907 1783.47 296.356L1812.79 294.356C1814.57 305.019 1819.12 313.571 1826.45 320.013C1833.78 326.233 1844.89 329.342 1859.77 329.342C1871.77 329.342 1881.32 327.454 1888.43 323.678C1895.76 319.68 1899.42 313.349 1899.42 304.686C1899.42 300.021 1898.31 296.133 1896.09 293.024C1893.87 289.914 1889.54 287.248 1883.1 285.027C1876.66 282.583 1867.1 280.251 1854.44 278.03C1837.56 274.92 1824.23 271.143 1814.46 266.701C1804.91 262.036 1798.02 256.372 1793.8 249.708C1789.8 242.821 1787.8 234.714 1787.8 225.384C1787.8 209.613 1793.58 196.729 1805.13 186.733C1816.68 176.515 1833.12 171.406 1854.44 171.406C1868.88 171.406 1880.99 174.071 1890.76 179.402C1900.76 184.511 1908.53 191.398 1914.08 200.061C1919.86 208.502 1923.64 217.831 1925.41 228.05L1896.09 230.049C1894.76 223.829 1892.32 218.387 1888.76 213.722C1885.21 208.835 1880.54 205.059 1874.77 202.393C1868.99 199.505 1862.11 198.062 1854.11 198.062C1841.45 198.062 1832.12 200.505 1826.12 205.392C1820.12 210.279 1817.12 216.499 1817.12 224.051C1817.12 229.827 1818.46 234.603 1821.12 238.379C1824.01 241.933 1828.56 244.932 1834.78 247.375C1841 249.597 1849.33 251.596 1859.77 253.373C1877.77 256.483 1891.76 260.259 1901.76 264.702C1911.75 269.144 1918.75 274.587 1922.75 281.028C1926.75 287.47 1928.75 295.356 1928.75 304.686C1928.75 315.57 1925.64 324.9 1919.42 332.674C1913.42 340.227 1905.2 346.002 1894.76 350.001C1884.54 353.999 1872.88 355.998 1859.77 355.998Z" fill="white"/>
<path d="M2001.43 352C1985.44 352 1973.55 348.335 1965.78 341.004C1958.23 333.674 1954.45 322.234 1954.45 306.685V134.087H1982.44V306.018C1982.44 314.015 1984.21 319.569 1987.77 322.678C1991.32 325.788 1996.77 327.343 2004.1 327.343H2029.42V352H2001.43ZM1928.46 200.061V175.404H2029.42V200.061H1928.46Z" fill="white"/>
<defs>
<filter id="filter0_d_2004_2" x="0" y="0" width="561" height="472.08" filterUnits="userSpaceOnUse" color-interpolation-filters="sRGB">
<feFlood flood-opacity="0" result="BackgroundImageFix"/>
<feColorMatrix in="SourceAlpha" type="matrix" values="0 0 0 0 0 0 0 0 0 0 0 0 0 0 0 0 0 0 127 0" result="hardAlpha"/>
<feOffset/>
<feGaussianBlur stdDeviation="50"/>
<feComposite in2="hardAlpha" operator="out"/>
<feColorMatrix type="matrix" values="0 0 0 0 0.996078 0 0 0 0 0.760784 0 0 0 0 0.258824 0 0 0 0.49 0"/>
<feBlend mode="normal" in2="BackgroundImageFix" result="effect1_dropShadow_2004_2"/>
<feBlend mode="normal" in="SourceGraphic" in2="effect1_dropShadow_2004_2" result="shape"/>
</filter>
</defs>
</svg>